<?xml version="1.0" encoding="UTF-8" standalone="no"?>
<!DOCTYPE svg PUBLIC "-//W3C//DTD SVG 1.0//EN" "http://www.w3.org/TR/2001/PR-SVG-20010719/DTD/svg10.dtd">
<svg width="30cm" height="16cm" viewBox="60 99 581 302" xmlns="http://www.w3.org/2000/svg" xmlns:xlink="http://www.w3.org/1999/xlink">
  <g>
    <ellipse style="fill: #ffffff" cx="240" cy="140" rx="40" ry="40"/>
    <ellipse style="fill: none; fill-opacity:0; stroke-width: 2; stroke: #000000" cx="240" cy="140" rx="40" ry="40"/>
    <ellipse style="fill: none; fill-opacity:0; stroke-width: 2; stroke: #000000" cx="240" cy="140" rx="40" ry="40"/>
  </g>
  <g>
    <ellipse style="fill: #ffffff" cx="360" cy="140" rx="40" ry="40"/>
    <ellipse style="fill: none; fill-opacity:0; stroke-width: 2; stroke: #000000" cx="360" cy="140" rx="40" ry="40"/>
    <ellipse style="fill: none; fill-opacity:0; stroke-width: 2; stroke: #000000" cx="360" cy="140" rx="40" ry="40"/>
  </g>
  <g>
    <ellipse style="fill: #ffffff" cx="480" cy="140" rx="40" ry="40"/>
    <ellipse style="fill: none; fill-opacity:0; stroke-width: 2; stroke: #000000" cx="480" cy="140" rx="40" ry="40"/>
    <ellipse style="fill: none; fill-opacity:0; stroke-width: 2; stroke: #000000" cx="480" cy="140" rx="40" ry="40"/>
  </g>
  <g>
    <ellipse style="fill: #ffffff" cx="600" cy="140" rx="40" ry="40"/>
    <ellipse style="fill: none; fill-opacity:0; stroke-width: 2; stroke: #000000" cx="600" cy="140" rx="40" ry="40"/>
    <ellipse style="fill: none; fill-opacity:0; stroke-width: 2; stroke: #000000" cx="600" cy="140" rx="40" ry="40"/>
  </g>
  <g>
    <line style="fill: none; fill-opacity:0; stroke-width: 2; stroke: #000000" x1="280" y1="140" x2="309" y2="140"/>
    <polygon style="fill: #000000" points="309,145 319,140 309,135 "/>
    <polygon style="fill: none; fill-opacity:0; stroke-width: 2; stroke: #000000" points="309,145 319,140 309,135 "/>
  </g>
  <g>
    <line style="fill: none; fill-opacity:0; stroke-width: 2; stroke: #000000" x1="400" y1="140" x2="429" y2="140"/>
    <polygon style="fill: #000000" points="429,145 439,140 429,135 "/>
    <polygon style="fill: none; fill-opacity:0; stroke-width: 2; stroke: #000000" points="429,145 439,140 429,135 "/>
  </g>
  <g>
    <line style="fill: none; fill-opacity:0; stroke-width: 2; stroke: #000000" x1="520" y1="140" x2="549" y2="140"/>
    <polygon style="fill: #000000" points="549,145 559,140 549,135 "/>
    <polygon style="fill: none; fill-opacity:0; stroke-width: 2; stroke: #000000" points="549,145 559,140 549,135 "/>
  </g>
  <g>
    <ellipse style="fill: #ffffff" cx="240" cy="360" rx="40" ry="40"/>
    <ellipse style="fill: none; fill-opacity:0; stroke-width: 2; stroke: #000000" cx="240" cy="360" rx="40" ry="40"/>
    <ellipse style="fill: none; fill-opacity:0; stroke-width: 2; stroke: #000000" cx="240" cy="360" rx="40" ry="40"/>
  </g>
  <g>
    <ellipse style="fill: #ffffff" cx="360" cy="360" rx="40" ry="40"/>
    <ellipse style="fill: none; fill-opacity:0; stroke-width: 2; stroke: #000000" cx="360" cy="360" rx="40" ry="40"/>
    <ellipse style="fill: none; fill-opacity:0; stroke-width: 2; stroke: #000000" cx="360" cy="360" rx="40" ry="40"/>
  </g>
  <g>
    <ellipse style="fill: #ffffff" cx="480" cy="360" rx="40" ry="40"/>
    <ellipse style="fill: none; fill-opacity:0; stroke-width: 2; stroke: #000000" cx="480" cy="360" rx="40" ry="40"/>
    <ellipse style="fill: none; fill-opacity:0; stroke-width: 2; stroke: #000000" cx="480" cy="360" rx="40" ry="40"/>
  </g>
  <g>
    <ellipse style="fill: #ffffff" cx="600" cy="360" rx="40" ry="40"/>
    <ellipse style="fill: none; fill-opacity:0; stroke-width: 2; stroke: #000000" cx="600" cy="360" rx="40" ry="40"/>
    <ellipse style="fill: none; fill-opacity:0; stroke-width: 2; stroke: #000000" cx="600" cy="360" rx="40" ry="40"/>
  </g>
  <g>
    <line style="fill: none; fill-opacity:0; stroke-width: 2; stroke: #000000" x1="280" y1="360" x2="309" y2="360"/>
    <polygon style="fill: #000000" points="309,365 319,360 309,355 "/>
    <polygon style="fill: none; fill-opacity:0; stroke-width: 2; stroke: #000000" points="309,365 319,360 309,355 "/>
  </g>
  <g>
    <line style="fill: none; fill-opacity:0; stroke-width: 2; stroke: #000000" x1="400" y1="360" x2="429" y2="360"/>
    <polygon style="fill: #000000" points="429,365 439,360 429,355 "/>
    <polygon style="fill: none; fill-opacity:0; stroke-width: 2; stroke: #000000" points="429,365 439,360 429,355 "/>
  </g>
  <g>
    <line style="fill: none; fill-opacity:0; stroke-width: 2; stroke: #000000" x1="520" y1="360" x2="549" y2="360"/>
    <polygon style="fill: #000000" points="549,365 559,360 549,355 "/>
    <polygon style="fill: none; fill-opacity:0; stroke-width: 2; stroke: #000000" points="549,365 559,360 549,355 "/>
  </g>
  <g>
    <path style="fill: none; fill-opacity:0; stroke-width: 2; stroke: #000000" d="M 471.032,313.651 A 200,200 0 0 0 240,320"/>
    <polygon style="fill: #000000" points="468.2,317.4 479.2,319.4 474.2,309.4 "/>
    <polygon style="fill: none; fill-opacity:0; stroke-width: 2; stroke: #000000" points="468.2,317.4 479.2,319.4 474.2,309.4 "/>
  </g>
  <g>
    <path style="fill: none; fill-opacity:0; stroke-width: 2; stroke: #000000" d="M 591.032,313.651 A 200,200 0 0 0 360,320"/>
    <polygon style="fill: #000000" points="588.2,317.4 599.2,319.4 594.2,309.4 "/>
    <polygon style="fill: none; fill-opacity:0; stroke-width: 2; stroke: #000000" points="588.2,317.4 599.2,319.4 594.2,309.4 "/>
  </g>
  <g>
    <path style="fill: none; fill-opacity:0; stroke-width: 2; stroke: #000000" d="M 592.452,312.01 A 242.5,242.5 0 0 0 240,320"/>
    <polygon style="fill: #000000" points="588.918,315.186 599.33,319.258 596.34,308.485 "/>
    <polygon style="fill: none; fill-opacity:0; stroke-width: 2; stroke: #000000" points="588.918,315.186 599.33,319.258 596.34,308.485 "/>
  </g>
  <text style="fill: #000000;text-anchor:start;font-size:28.6056;font-family:sanserif;font-style:normal;font-weight:normal" x="60" y="360">
    <tspan x="60" y="360">Output</tspan>
  </text>
  <text style="fill: #000000;text-anchor:start;font-size:28.6056;font-family:sanserif;font-style:normal;font-weight:normal" x="60" y="140">
    <tspan x="60" y="140">Input</tspan>
  </text>
</svg>
